# Blender 4.0.2
# www.blender.org
mtllib cuboide.mtl
o Cube
v 0.069474 0.099165 -0.436991
v -0.229630 -0.260758 -0.260947
v 0.421412 -0.031836 -0.106872
v 0.122307 -0.391760 0.069173
v -0.122037 0.420559 -0.105284
v -0.421141 0.060635 0.070760
v 0.229901 0.289557 0.224835
v -0.069204 -0.070366 0.400880
vn 0.5982 0.7198 -0.3521
vn 0.7039 -0.2620 0.6602
vn -0.3830 0.6428 0.6634
vn -0.5982 -0.7198 0.3521
vn 0.3830 -0.6428 -0.6634
vn -0.7039 0.2620 -0.6602
vt 0.875000 0.500000
vt 0.625000 0.750000
vt 0.625000 0.500000
vt 0.375000 1.000000
vt 0.375000 0.750000
vt 0.625000 0.000000
vt 0.375000 0.250000
vt 0.375000 0.000000
vt 0.375000 0.500000
vt 0.125000 0.750000
vt 0.125000 0.500000
vt 0.625000 0.250000
vt 0.875000 0.750000
vt 0.625000 1.000000
s 0
usemtl Material
f 5/1/1 3/2/1 1/3/1
f 3/2/2 8/4/2 4/5/2
f 7/6/3 6/7/3 8/8/3
f 2/9/4 8/10/4 6/11/4
f 1/3/5 4/5/5 2/9/5
f 5/12/6 2/9/6 6/7/6
f 5/1/1 7/13/1 3/2/1
f 3/2/2 7/14/2 8/4/2
f 7/6/3 5/12/3 6/7/3
f 2/9/4 4/5/4 8/10/4
f 1/3/5 3/2/5 4/5/5
f 5/12/6 1/3/6 2/9/6
